<svg viewBox="0 0 60 60" xmlns="http://www.w3.org/2000/svg" xmlns:xlink="http://www.w3.org/1999/xlink" width="60.000000" height="60.000000" fill="none" customFrame="#000000">
	<rect id="icon_vk" width="60.000000" height="60.000000" x="0.000000" y="0.000000" />
	<path id="↳ Icon Color" d="M9.58898 9.58898C6.25 12.928 6.25 18.302 6.25 29.05L6.25 30.95C6.25 41.698 6.25 47.072 9.58898 50.411C12.928 53.75 18.302 53.75 29.05 53.75L30.95 53.75C41.698 53.75 47.072 53.75 50.411 50.411C53.75 47.072 53.75 41.698 53.75 30.95L53.75 29.05C53.75 18.302 53.75 12.928 50.411 9.58898C47.072 6.25 41.698 6.25 30.95 6.25L29.05 6.25C18.302 6.25 12.928 6.25 9.58898 9.58898ZM14.25 20.75C14.5068 33.0863 20.6698 40.5 31.4748 40.5L32.0873 40.5L32.0873 33.4422C36.0577 33.8376 39.06 36.7437 40.2649 40.5L45.875 40.5C44.3343 34.8854 40.2846 31.7815 37.7562 30.5953C40.2846 29.1324 43.8402 25.5738 44.6896 20.75L39.5931 20.75C38.487 24.6644 35.2083 28.2229 32.0873 28.559L32.0873 20.75L26.9908 20.75L26.9908 34.4307C23.8303 33.6399 19.8402 29.8046 19.6624 20.75L14.25 20.75Z" fill="rgb(228,228,228)" fill-rule="evenodd" />
</svg>
